<svg width="321" height="210" viewBox="0 0 321 210" fill="none" xmlns="http://www.w3.org/2000/svg">
<path d="M118.957 70.8801L108.01 201.141C108.01 201.141 106.856 209.035 112.736 209.051C122.4 209.067 160.796 209.051 160.796 209.051C160.796 209.051 153.536 207.41 153.617 203.707C153.715 199.354 166.416 69.6458 166.416 69.6458L118.957 70.8801Z" fill="#ACB2B1"/>
<path d="M163.915 206.68C162.015 206.68 125.324 206.793 115.92 206.68C111.827 206.631 111.096 203.041 111.064 200.703C111.048 199.582 111.194 198.77 111.194 198.77L111.486 195.391L112.217 186.767L112.85 179.149L113.679 169.355L114.377 161.088L122.157 68.525L169.616 67.2906C169.616 67.2906 164.273 121.571 160.488 161.072C160.066 165.474 159.66 169.697 159.286 173.643C159.173 174.894 159.043 176.128 158.945 177.33C158.588 181.066 158.279 184.509 157.987 187.53C157.841 189.122 157.711 190.616 157.581 191.964C157.094 197.292 156.818 200.703 156.818 201.336C156.818 201.71 156.85 202.067 156.915 202.392C157.678 206.55 163.201 206.68 163.915 206.68Z" fill="#C8CCCC"/>
<path d="M3.70312 0L30.3888 107.181L34.0432 121.864L46.4683 171.792H277.365L231.546 0H3.70312Z" fill="#C8CCCC"/>
<path d="M3.70318 0L0 1.23439L41.5471 175.511L46.4684 171.792L3.70318 0Z" fill="#C7CBCB"/>
<path d="M41.5469 175.511H271.03L277.365 171.792H46.4682L41.5469 175.511Z" fill="#ACB2B1"/>
<path d="M122.128 209.091H171.812V206.736H122.128V209.091Z" fill="#CCD0CF"/>
<path d="M266.175 140.136L228.704 2.27388H3.33008V0H231.547L268.887 139.827L266.175 140.136Z" fill="#CCD0CF"/>
<path d="M159.187 175.511L158.927 177.33L112.199 186.767L112.849 179.133L113.158 175.511H159.187Z" fill="#ACB2B1"/>
<path opacity="0.4" d="M163.914 206.68C162.014 206.68 125.323 206.793 115.919 206.68C111.826 206.631 111.095 203.041 111.062 200.703L157.563 191.948C157.076 197.275 156.8 200.686 156.8 201.32C156.8 201.693 156.832 202.051 156.897 202.375C157.677 206.55 163.199 206.68 163.914 206.68Z" fill="#ACB2B1"/>
<path opacity="0.4" d="M147.899 137.018L46.4681 171.792L34.043 121.864L147.899 137.018Z" fill="#ACB2B1"/>
<path d="M3.70312 0H231.546L268.529 138.057H36.9018L3.70312 0Z" fill="#212D6A"/>
<path d="M168.041 155.517C167.375 152.139 164.11 149.394 160.716 149.394C157.337 149.394 155.112 152.139 155.778 155.517C156.444 158.896 159.709 161.641 163.103 161.641C166.481 161.641 168.69 158.896 168.041 155.517Z" fill="#ACB2B1"/>
<path d="M257.778 132.08H44.439L20.2709 35.8299L18.4193 28.456L16.8438 22.1541L15.5769 17.1191L13.1406 7.39014H223.41L223.556 7.92612L226.09 17.1191L227.47 22.1541L229.208 28.456L231.238 35.8299L257.778 132.08Z" fill="#EDF5F6"/>
<path d="M257.778 132.405H44.439L20.2709 36.171L18.4193 28.7808L16.8438 22.4789L15.5769 17.4439L13.1406 7.7312H223.41L223.556 8.26719L226.09 17.4439L227.47 22.4789L229.208 28.7808L231.238 36.171L257.778 132.405Z" fill="#EDF5F6"/>
<path d="M226.09 17.1191H15.5769L13.1406 7.39014H223.329L223.556 7.92612L226.09 17.1191Z" fill="#BAD8DC"/>
<path d="M18.9861 12.2626C18.7263 11.2394 19.3597 10.411 20.3667 10.411C21.3737 10.411 22.4132 11.2394 22.6731 12.2626C22.933 13.2858 22.2995 14.1142 21.2925 14.1142C20.2855 14.1142 19.246 13.2696 18.9861 12.2626Z" fill="#EDF5F6"/>
<path d="M28.5363 13.6501C29.1301 12.9778 28.9084 11.8118 28.0411 11.0457C27.1738 10.2797 25.9894 10.2037 25.3955 10.876C24.8017 11.5484 25.0234 12.7144 25.8907 13.4804C26.758 14.2465 27.9424 14.3224 28.5363 13.6501Z" fill="#EDF5F6"/>
<path d="M31.7205 12.2626C31.4606 11.2394 32.0941 10.411 33.1011 10.411C34.1081 10.411 35.1476 11.2394 35.4075 12.2626C35.6673 13.2858 35.0339 14.1142 34.0269 14.1142C33.0036 14.0979 31.9804 13.2696 31.7205 12.2626Z" fill="#EDF5F6"/>
<path d="M110.899 132.405H89.8007C89.6058 130.748 89.4271 129.01 89.2647 127.191C88.9886 123.927 88.7612 120.418 88.5988 116.78C88.5663 115.936 88.5338 115.091 88.5013 114.23C88.4689 113.142 88.4201 112.038 88.3877 110.933C88.3389 109.049 88.2902 107.149 88.274 105.248C88.2415 102.812 88.2252 100.36 88.209 97.907C88.209 97.2898 88.209 96.6888 88.209 96.0716C88.209 95.5031 88.209 94.9347 88.209 94.3662C88.2252 89.1038 88.3064 83.9388 88.4201 79.1474C88.6638 68.5252 89.0536 59.6733 89.2647 55.4179C89.3459 53.6637 89.4109 52.7054 89.4109 52.7054C89.4596 52.7054 89.7845 52.7704 90.288 52.9004C90.6615 52.9978 91.1325 53.1115 91.6523 53.2739C92.1396 53.4201 92.6593 53.5988 93.2278 53.8099C94.186 54.1835 95.2093 54.6382 96.1676 55.223C96.1838 55.223 96.2001 55.2392 96.2163 55.2392C97.7918 56.2137 99.2211 57.5131 99.8708 59.2185C100.423 60.6803 101.739 68.4927 103.314 78.8713C103.363 79.1637 103.395 79.4723 103.444 79.7646C104.272 85.2707 105.182 91.4589 106.075 97.777C107.033 104.469 107.992 111.307 108.869 117.641C109.616 123.066 110.314 128.133 110.899 132.405Z" fill="#212D6A"/>
<path d="M104.987 132.405H80.4296C79.9585 130.375 79.52 128.426 79.1302 126.59C78.0582 121.539 77.3436 117.397 77.3761 115.172C77.3923 114.133 77.7821 113.321 78.4643 112.687C78.9353 112.265 79.52 111.908 80.2184 111.648C82.2974 110.868 85.2697 110.738 88.3881 110.933C89.4439 110.998 90.5158 111.095 91.5716 111.225C97.4025 111.94 102.827 113.386 102.827 113.386C102.827 113.386 103.185 114.847 103.623 117.414C103.948 119.33 104.305 121.88 104.565 124.869C104.728 126.607 104.841 128.507 104.923 130.537C104.939 131.154 104.955 131.772 104.987 132.405Z" fill="#212D6A"/>
<path d="M93.6508 115.205L93.4072 116.975L92.2215 125.583L92.0266 127.061L91.2957 132.405H65.6821C65.4872 128.88 65.2922 125.437 65.2598 122.432C65.2598 122.107 65.2598 121.766 65.2598 121.458C65.2598 116.943 65.6496 113.597 66.9489 112.752C68.4107 111.794 73.2833 112.054 78.4645 112.687C78.9843 112.752 79.504 112.817 80.0238 112.882C83.0448 113.288 86.0658 113.792 88.5021 114.214C89.769 114.441 90.8572 114.636 91.718 114.815C92.9199 115.058 93.6508 115.205 93.6508 115.205Z" fill="#1A565E"/>
<path d="M65.2598 57.1395C65.2598 57.1395 79.3254 48.0439 89.3954 52.7054C91.0034 53.4525 92.8387 55.5153 94.1543 56.9608C97.7925 60.9726 104.923 124.771 104.923 124.771C104.923 124.771 84.7015 131.625 65.2598 122.449V57.1395Z" fill="white"/>
<path d="M90.207 52.4618C90.207 52.4618 104.435 58.2927 106.368 62.7755C108.301 67.2583 114.554 94.7722 114.554 98.0044C114.554 101.237 103.639 98.719 101.885 93.5216C100.423 89.2012 95.5019 75.9153 92.9194 67.5181L90.207 52.4618Z" fill="#212D6A"/>
<path d="M87.2523 56.9121C84.1501 57.5293 79.5861 56.8796 76.2402 54.6707C77.7507 51.065 78.3679 48.2226 78.5953 46.3873C78.6116 46.2898 78.6116 46.1923 78.6278 46.0949C78.7253 45.1366 78.709 44.4869 78.6603 44.1946H86.7001C86.7001 44.1946 88.8928 45.2016 88.8928 45.9C88.8928 46.2736 88.8928 46.6309 88.909 46.972C88.9253 47.8978 88.9577 48.7099 89.0065 49.392C89.1526 51.6497 89.4125 52.7054 89.4125 52.7054C89.4125 52.7054 90.387 56.2949 87.2523 56.9121Z" fill="#D8DBDA"/>
<path d="M88.9896 49.3757C82.8988 50.5452 79.3743 47.2318 78.5784 46.371C78.4647 46.241 78.416 46.1761 78.416 46.1761C78.481 46.1436 78.546 46.1111 78.6109 46.0786C80.8686 45.1691 86.0173 45.8837 88.8921 46.9394C88.9084 47.8815 88.9408 48.6936 88.9896 49.3757Z" fill="#C3C8C7"/>
<path d="M76.5973 42.879C77.6855 48.7261 85.2381 48.5312 88.5027 48.1739C89.4285 48.0764 89.997 47.9465 89.997 47.9465C91.0365 47.6704 91.605 46.0462 91.8811 43.9022C92.4171 39.6793 91.7349 33.4749 91.0202 31.8831C89.9483 29.4956 87.918 26.9131 80.3168 28.7809C72.7155 30.6325 75.2005 35.3752 76.5973 42.879Z" fill="#D8DBDA"/>
<path d="M91.2962 28.6185C90.2567 27.1729 88.0478 25.4188 86.05 24.3306C81.7459 22.008 76.2398 24.4118 76.2236 24.4118C70.0191 27.1405 68.3949 31.8994 71.6758 39.3057C75.1516 47.1344 78.4812 46.2573 78.4812 46.2573C78.4812 46.2573 77.7828 45.8188 77.8478 43.3825C77.8478 43.2363 77.864 43.1226 77.864 43.0252C77.8965 42.5216 77.7178 42.0182 77.3443 41.6933C76.5647 41.0111 76.1911 38.9159 76.8408 38.3475C77.6204 37.649 78.7086 38.4936 79.0659 39.1433C79.3745 39.5981 79.9268 39.7605 80.4303 39.4519C82.3631 38.2338 81.1124 35.7812 82.9478 34.287C84.7994 32.7927 88.5513 34.0433 91.3124 32.8577C94.9506 31.4933 92.092 29.7067 91.2962 28.6185Z" fill="#212D6A"/>
<path d="M92.3017 132.405H61.6855C61.8967 126.054 62.1891 118.486 62.4814 110.803C62.5626 108.822 62.6438 106.824 62.7088 104.842C62.7413 103.998 62.7738 103.169 62.8062 102.341C63.4884 85.3031 64.1543 69.9057 64.3005 69.0774C64.6254 67.2095 64.9177 65.6016 65.2588 64.221C66.2171 60.1767 67.419 57.9678 70.0177 56.0675C70.2776 55.8726 72.3565 54.8169 74.1919 53.9073C75.6862 53.1602 77.0343 52.5105 77.0667 52.4943C77.3753 52.6404 77.7002 53.0627 78.0575 53.6962C78.4148 54.3296 78.7884 55.158 79.162 56.1325C80.5588 59.722 82.0693 65.228 83.125 69.3372V69.3535C83.8072 72.0009 84.2944 74.0637 84.4244 74.6646C84.6518 75.6716 84.9604 77.6044 85.3339 80.2194C85.8212 83.7926 86.4221 88.649 87.0393 94.155C87.1043 94.7235 87.1693 95.292 87.2342 95.8767C87.3154 96.5426 87.3804 97.2085 87.4616 97.8744C87.4779 98.0856 87.5104 98.313 87.5266 98.5241C87.7702 100.701 88.0139 102.958 88.2575 105.248C88.4686 107.132 91.3272 108.497 91.5221 110.413C91.5384 110.559 91.5546 110.836 91.5709 111.225C91.6033 112.037 91.6521 113.321 91.7008 114.815C91.717 115.481 91.7495 116.179 91.7658 116.894C91.8794 120.094 92.0094 123.586 92.1718 125.275C92.1718 125.356 92.188 125.453 92.188 125.583C92.2043 125.924 92.2205 126.412 92.2368 127.029C92.2855 128.377 92.3017 130.261 92.3017 132.405Z" fill="#212D6A"/>
<path d="M71.4152 75.9478C71.3989 75.9802 70.9279 93.1805 83.8566 95.2595C96.7852 97.3547 88.1932 97.9069 88.1932 97.9069C88.1932 97.9069 63.8626 96.8675 63.4566 96.234C63.0668 95.5843 71.4152 75.9478 71.4152 75.9478Z" fill="#212D6A"/>
<path d="M82.346 102.65C82.346 102.65 82.1024 102.828 81.6314 103.121L81.6151 103.137C79.6499 104.404 73.7865 107.831 65.2594 110.137C64.3661 110.381 63.4403 110.608 62.4821 110.819C62.5633 108.838 62.6282 106.84 62.7094 104.859C61.5887 104.777 60.5005 104.631 59.5098 104.42C59.5422 104.16 59.5747 103.9 59.6072 103.64C60.6954 103.202 61.7674 102.763 62.8069 102.357C63.6515 102.032 64.4798 101.708 65.2432 101.415C68.7515 100.083 71.334 99.1901 71.334 99.1901L81.6964 102.471L82.346 102.65Z" fill="#212D6A"/>
<path d="M85.091 102.357C85.091 102.357 83.7592 102.682 81.6315 103.121H81.6152C77.7009 103.9 71.1391 105.005 65.2595 104.956C64.3987 104.94 63.5379 104.907 62.7258 104.842C61.6051 104.761 60.5169 104.615 59.5261 104.404C57.3821 103.949 55.5793 103.186 54.4099 101.984C45.6717 93.0831 59.1688 61.1513 62.0111 58.049C65.3245 54.4271 71.3665 53.1439 74.7124 52.7054C74.8586 52.6892 74.9885 52.6729 75.1184 52.6567C76.2879 52.5105 77.0512 52.4943 77.0837 52.4943C77.0837 52.4943 76.8238 53.3388 76.3853 54.7681C76.2229 55.3204 76.0117 55.9538 75.8006 56.6847C73.7541 63.4089 69.791 76.6136 68.0532 84.0525C67.4197 86.7811 67.0786 88.7302 67.2248 89.3149C67.907 91.8649 74.956 93.1643 79.4388 93.749C81.3066 93.9926 82.7197 94.1063 83.0283 94.1225C83.0445 94.1225 83.077 94.1225 83.0933 94.1225L83.3531 95.1783L83.9703 97.7283L84.5713 100.23L85.091 102.357Z" fill="#212D6A"/>
<path d="M109.454 117.657L79.4551 116.407L85.5458 79.0175L115.529 80.2843L109.454 117.657Z" fill="#C8CCCC"/>
<path d="M83.0776 94.1062C83.0776 94.1062 88.9247 93.7002 89.217 95.0645C89.8992 98.2317 84.1983 100.847 82.3467 100.668C80.4951 100.489 81.7457 93.8951 83.0776 94.1062Z" fill="#D8DBDA"/>
<path d="M113.889 87.8693C113.889 87.8693 108.302 86.1152 107.701 87.3821C106.304 90.3056 111.241 94.1712 113.093 94.4149C114.928 94.6747 115.253 87.983 113.889 87.8693Z" fill="#D8DBDA"/>
<path d="M77.685 50.6101C77.685 50.6101 75.2324 51.7795 73.998 53.5499C73.998 53.5499 83.1748 69.4996 83.1423 69.3371C83.0936 69.191 80.0238 52.6566 77.685 50.6101Z" fill="#212D6A"/>
<path d="M89.1191 50.8375C89.9312 51.1461 91.4742 52.7378 91.8316 53.6149L92.9198 67.5343C92.9198 67.5343 90.5809 57.3181 89.3953 52.7054C89.1029 51.5197 89.1516 51.1624 89.1191 50.8375Z" fill="#212D6A"/>
<path d="M95.4863 79.4397C95.4863 79.4397 95.73 78.4002 97.0943 78.5302C98.4586 78.6439 106.125 79.0337 106.125 79.0337C106.125 79.0337 107.603 79.0174 107.473 79.9595L95.4863 79.4397Z" fill="#1A565E"/>
<path d="M86.6836 44.1945C86.6836 44.1945 87.6744 45.1041 89.2823 44.828C90.2406 44.6656 90.7603 43.4149 90.7603 43.4149C90.7603 43.4149 88.9412 43.0901 86.6836 44.1945Z" fill="white"/>
<path d="M228.817 55.8238L206.663 55.905L199.484 28.4073L221.638 28.326L228.817 55.8238Z" fill="white"/>
<path d="M216.148 31.9318L206.858 31.9643L206.744 31.5582L216.035 31.5258L216.148 31.9318Z" fill="#B8D7DB"/>
<path d="M217.625 33.0688L205.963 33.1175L205.85 32.7114L217.511 32.6627L217.625 33.0688Z" fill="#B8D7DB"/>
<path d="M220.825 38.6723L205.688 38.721L205.574 38.315L220.728 38.2662L220.825 38.6723Z" fill="#B8D7DB"/>
<path d="M221.183 40.0042L206.029 40.0692L205.932 39.6631L221.069 39.5981L221.183 40.0042Z" fill="#B8D7DB"/>
<path d="M221.541 41.3522L206.387 41.4009L206.273 40.9949L221.427 40.9462L221.541 41.3522Z" fill="#B8D7DB"/>
<path d="M221.882 42.684L206.728 42.749L206.631 42.3429L221.785 42.278L221.882 42.684Z" fill="#B8D7DB"/>
<path d="M222.238 44.0321L207.084 44.0809L206.971 43.6748L222.124 43.6261L222.238 44.0321Z" fill="#B8D7DB"/>
<path d="M223.083 47.2967L207.929 47.3454L207.832 46.9393L222.986 46.8906L223.083 47.2967Z" fill="#B8D7DB"/>
<path d="M223.441 48.6285L208.288 48.6934L208.174 48.2874L223.328 48.2224L223.441 48.6285Z" fill="#B8D7DB"/>
<path d="M223.783 49.9766L208.645 50.0253L208.531 49.6193L223.685 49.5706L223.783 49.9766Z" fill="#B8D7DB"/>
<path d="M224.14 51.3246L208.986 51.3734L208.889 50.9673L224.026 50.9186L224.14 51.3246Z" fill="#B8D7DB"/>
<path d="M224.48 52.6565L209.342 52.7215L209.229 52.3155L224.382 52.2505L224.48 52.6565Z" fill="#B8D7DB"/>
<path d="M237.75 90.0132L215.596 90.0944L208.4 62.5805L230.571 62.4993L237.75 90.0132Z" fill="white"/>
<path d="M225.066 66.1211L215.775 66.1536L215.678 65.7476L224.968 65.7151L225.066 66.1211Z" fill="#B8D7DB"/>
<path d="M226.559 67.2419L214.897 67.2906L214.783 66.8845L226.445 66.8358L226.559 67.2419Z" fill="#B8D7DB"/>
<path d="M229.759 72.8454L214.605 72.9103L214.508 72.5043L229.662 72.4393L229.759 72.8454Z" fill="#B8D7DB"/>
<path d="M230.117 74.1934L214.963 74.2421L214.85 73.8361L230.003 73.7874L230.117 74.1934Z" fill="#B8D7DB"/>
<path d="M230.458 75.5253L215.304 75.5903L215.207 75.1842L230.361 75.1193L230.458 75.5253Z" fill="#B8D7DB"/>
<path d="M230.814 76.8733L215.661 76.9221L215.547 76.516L230.701 76.4673L230.814 76.8733Z" fill="#B8D7DB"/>
<path d="M231.156 78.2052L216.018 78.2702L215.904 77.8642L231.058 77.7992L231.156 78.2052Z" fill="#B8D7DB"/>
<path d="M232.017 81.4699L216.863 81.5349L216.766 81.1288L231.903 81.0638L232.017 81.4699Z" fill="#B8D7DB"/>
<path d="M232.359 82.818L217.221 82.8668L217.107 82.4607L232.261 82.412L232.359 82.818Z" fill="#B8D7DB"/>
<path d="M232.716 84.1661L217.562 84.2148L217.465 83.8087L232.619 83.76L232.716 84.1661Z" fill="#B8D7DB"/>
<path d="M233.072 85.498L217.918 85.5629L217.805 85.1569L232.958 85.0919L233.072 85.498Z" fill="#B8D7DB"/>
<path d="M233.413 86.846L218.26 86.8947L218.162 86.4887L233.316 86.4399L233.413 86.846Z" fill="#B8D7DB"/>
<path d="M246.748 124.43L224.577 124.511L217.398 96.9972L239.553 96.916L246.748 124.43Z" fill="white"/>
<path d="M234.062 100.538L224.772 100.57L224.658 100.164L233.949 100.116L234.062 100.538Z" fill="#B8D7DB"/>
<path d="M235.539 101.659L223.877 101.707L223.764 101.301L235.442 101.253L235.539 101.659Z" fill="#B8D7DB"/>
<path d="M238.756 107.262L223.602 107.311L223.488 106.905L238.642 106.856L238.756 107.262Z" fill="#B8D7DB"/>
<path d="M239.097 108.594L223.943 108.659L223.846 108.253L239 108.188L239.097 108.594Z" fill="#B8D7DB"/>
<path d="M239.455 109.942L224.301 109.991L224.188 109.585L239.341 109.536L239.455 109.942Z" fill="#B8D7DB"/>
<path d="M239.796 111.29L224.642 111.339L224.545 110.933L239.699 110.884L239.796 111.29Z" fill="#B8D7DB"/>
<path d="M240.152 112.622L224.998 112.687L224.885 112.281L240.039 112.216L240.152 112.622Z" fill="#B8D7DB"/>
<path d="M240.997 115.887L225.86 115.952L225.746 115.546L240.9 115.481L240.997 115.887Z" fill="#B8D7DB"/>
<path d="M241.355 117.235L226.201 117.283L226.104 116.877L241.241 116.829L241.355 117.235Z" fill="#B8D7DB"/>
<path d="M241.697 118.567L226.559 118.632L226.445 118.225L241.599 118.161L241.697 118.567Z" fill="#B8D7DB"/>
<path d="M242.054 119.915L226.9 119.963L226.803 119.557L241.957 119.509L242.054 119.915Z" fill="#B8D7DB"/>
<path d="M242.41 121.247L227.256 121.311L227.143 120.905L242.296 120.84L242.41 121.247Z" fill="#B8D7DB"/>
<path d="M217.61 124.657L140.103 124.95L117.803 39.5492L127.905 28.6833L192.467 28.4397L217.61 124.657Z" fill="white"/>
<path d="M171.126 42.8788L143.823 42.9762L143.498 41.7743L170.817 41.6769L171.126 42.8788Z" fill="#B8D7DB"/>
<path d="M175.495 46.1921L141.191 46.3221L140.883 45.1364L175.17 45.0065L175.495 46.1921Z" fill="#B8D7DB"/>
<path d="M184.915 62.6616L140.379 62.824L140.07 61.6221L184.606 61.4597L184.915 62.6616Z" fill="#B8D7DB"/>
<path d="M185.954 66.5922L141.402 66.7708L141.094 65.5689L185.629 65.4065L185.954 66.5922Z" fill="#B8D7DB"/>
<path d="M186.978 70.5389L142.442 70.7014L142.117 69.5157L186.669 69.3533L186.978 70.5389Z" fill="#B8D7DB"/>
<path d="M188 74.4858L143.465 74.6483L143.156 73.4464L187.692 73.2839L188 74.4858Z" fill="#B8D7DB"/>
<path d="M189.04 78.4326L144.488 78.595L144.18 77.3931L188.732 77.2307L189.04 78.4326Z" fill="#B8D7DB"/>
<path d="M191.541 88.0154L147.006 88.194L146.697 86.9921L191.233 86.8297L191.541 88.0154Z" fill="#B8D7DB"/>
<path d="M192.565 91.9622L148.029 92.1246L147.721 90.9389L192.256 90.7765L192.565 91.9622Z" fill="#B8D7DB"/>
<path d="M193.605 95.9089L149.069 96.0714L148.744 94.8695L193.296 94.707L193.605 95.9089Z" fill="#B8D7DB"/>
<path d="M194.627 99.8558L150.092 100.018L149.783 98.8164L194.319 98.6539L194.627 99.8558Z" fill="#B8D7DB"/>
<path d="M195.667 103.803L151.115 103.965L150.807 102.763L195.342 102.601L195.667 103.803Z" fill="#B8D7DB"/>
<path d="M117.803 39.5493L130.731 39.5005L127.905 28.6833L117.803 39.5493Z" fill="#B8D7DB"/>
<path d="M224.902 190.47H161.818V168.186H225.113C230.035 168.186 234.03 172.182 234.03 177.103V181.358C234.014 186.393 229.937 190.47 224.902 190.47Z" fill="#F4F5F5"/>
<path d="M287.873 177.363V180.709C287.873 182.495 287.385 184.185 286.541 185.614C284.852 188.521 281.701 190.47 278.095 190.47H159.886C159.106 190.47 158.473 189.837 158.473 189.057V188.554C158.473 187.774 159.106 187.141 159.886 187.141H231.952C232.341 186.67 232.682 186.166 232.959 185.614C233.641 184.347 234.014 182.885 234.014 181.358V177.103C234.014 176.323 233.917 175.56 233.722 174.829C233.397 173.595 232.829 172.474 232.049 171.516H159.886C159.106 171.516 158.473 170.882 158.473 170.103V169.599C158.473 168.82 159.106 168.186 159.886 168.186H278.696C282.886 168.186 286.411 170.996 287.515 174.829C287.743 175.641 287.873 176.486 287.873 177.363Z" fill="#212D6A"/>
<path d="M287.515 174.829H233.722C233.397 173.595 232.829 172.474 232.049 171.516H159.886C159.106 171.516 158.473 170.882 158.473 170.103V169.599C158.473 168.82 159.106 168.186 159.886 168.186H278.696C282.886 168.186 286.411 170.996 287.515 174.829Z" fill="#66A9B2"/>
<path d="M161.818 179.328L170.573 179.702L161.818 179.929V179.328Z" fill="#E6E8E8"/>
<path d="M161.818 182.82L182.641 183.194L161.818 183.421V182.82Z" fill="#E6E8E8"/>
<path d="M176.859 207.752H244.02V190.421H176.307C171.678 190.421 167.91 194.173 167.91 198.818C167.926 203.756 171.922 207.752 176.859 207.752Z" fill="#212D6A"/>
<path d="M240.171 207.752H316.606V190.421H239.976C235.266 190.421 231.449 194.238 231.449 198.948V199.013C231.433 203.854 235.347 207.752 240.171 207.752Z" fill="#F4F5F5"/>
<path d="M226.333 207.752H319.253C319.968 207.752 320.552 207.167 320.552 206.452C320.552 205.738 319.968 205.153 319.253 205.153H226.333C225.618 205.153 225.033 205.738 225.033 206.452C225.033 207.183 225.618 207.752 226.333 207.752Z" fill="#212D6A"/>
<path d="M226.333 193.02H319.253C319.968 193.02 320.552 192.435 320.552 191.721C320.552 191.006 319.968 190.421 319.253 190.421H226.333C225.618 190.421 225.033 191.006 225.033 191.721C225.033 192.435 225.618 193.02 226.333 193.02Z" fill="#212D6A"/>
<path d="M316.605 199.095L306.275 199.387L316.605 199.566V199.095Z" fill="#E6E8E8"/>
<path d="M316.605 195.099L292.031 195.391L316.605 195.57V195.099Z" fill="#E6E8E8"/>
<path d="M292.291 195.343C292.291 195.343 293.347 196.09 293.688 197.308C293.753 197.519 293.785 197.747 293.802 197.99C293.866 199.614 293.802 203.301 293.802 203.301L296.904 201.466L300.006 203.301V198.315C300.006 197.373 299.746 196.447 299.243 195.846C298.999 195.554 298.707 195.343 298.382 195.343H292.291Z" fill="#212D6A"/>
<path d="M292.291 195.343C292.291 195.343 293.347 196.09 293.688 197.308L299.909 197.373C299.909 197.373 299.665 195.619 298.382 195.326H292.291V195.343Z" fill="#63A8B0"/>
<path d="M232.34 168.235H300.962V142.767H232.113C226.623 142.767 222.156 147.218 222.156 152.724V158.067C222.172 163.687 226.72 168.235 232.34 168.235Z" fill="#F4F5F5"/>
<path d="M223.781 152.659V158.132C223.798 160.471 225.097 162.502 226.997 163.59C227.939 164.126 229.011 164.434 230.164 164.434H304.699C305.576 164.434 306.274 165.149 306.274 166.01V166.659C306.274 167.537 305.56 168.235 304.699 168.235H175.965C172.278 168.235 169.013 166.4 167.032 163.59C165.781 161.819 165.066 159.659 165.066 157.337V153.016C165.066 151.424 165.424 149.914 166.09 148.566C167.746 145.139 171.255 142.784 175.315 142.784H304.699C305.576 142.784 306.274 143.498 306.274 144.359V145.009C306.274 145.886 305.56 146.584 304.699 146.584H229.953C228.167 146.584 226.542 147.348 225.422 148.566C224.415 149.638 223.798 151.067 223.781 152.659Z" fill="#00434C"/>
<path d="M300.962 155.501L291.412 155.94L300.962 156.183V155.501Z" fill="#E6E8E8"/>
<path d="M300.963 149.638L278.24 150.076L300.963 150.336V149.638Z" fill="#E6E8E8"/>
<path d="M278.469 149.979C278.469 149.979 279.963 150.791 280.467 152.106C280.548 152.334 280.613 152.594 280.629 152.854C280.71 154.624 280.629 158.603 280.629 158.603L285.063 156.605L289.481 158.603V153.195C289.481 152.171 289.107 151.181 288.393 150.531C288.052 150.222 287.645 149.979 287.174 149.979H278.469Z" fill="#C8CCCC"/>
<path d="M278.469 149.979C278.469 149.979 279.963 150.791 280.467 152.106L289.335 152.188C289.335 152.188 288.994 150.287 287.158 149.979H278.469Z" fill="#BABFBE"/>
<path d="M233.544 133.331C237.475 140.169 242.412 142.8 242.412 142.8H262.959C262.959 142.8 230.54 128.117 233.544 133.331Z" fill="#212D6A"/>
<path d="M249.333 186.215C249.869 186.832 249.934 187.514 249.674 188.245C249.674 188.245 249.674 188.245 249.674 188.261C249.186 189.609 247.562 191.136 245.678 192.647C245.435 192.841 245.223 193.02 245.045 193.183C244.996 193.231 244.947 193.264 244.899 193.313C244.866 193.345 244.817 193.377 244.785 193.41C243.031 195.034 243.697 195.391 240.546 198.672C236.956 202.408 234.471 202.473 233.773 202.132C233.172 201.84 234.39 199.858 235.722 197.633C235.787 197.519 235.852 197.422 235.917 197.308C236.095 197.016 236.274 196.707 236.453 196.415C238.028 193.735 237.622 192.468 237.249 188.489C236.94 185.24 232.197 170.363 232.197 170.363L239.084 169.177C239.084 169.177 241.163 181.017 243.437 182.853C244.655 183.827 246.019 183.843 247.205 184.558C247.286 184.607 247.367 184.656 247.449 184.72C248.114 185.143 248.797 185.614 249.333 186.215Z" fill="#D8DBDA"/>
<path d="M249.333 186.215C249.869 186.832 249.934 187.514 249.674 188.245C249.674 188.245 249.674 188.245 249.674 188.261C249.073 189.609 247.497 191.12 245.678 192.63C245.435 192.825 245.223 193.004 245.045 193.183C244.996 193.231 244.947 193.264 244.899 193.313C244.866 193.345 244.817 193.378 244.785 193.41C243.031 195.034 243.697 195.392 240.546 198.672C236.956 202.408 234.471 202.473 233.773 202.132C233.172 201.84 234.39 199.858 235.722 197.633C236.42 197.373 239.669 196.057 242.121 192.907C244.281 190.145 245.727 186.605 247.205 184.542C247.286 184.591 247.367 184.639 247.449 184.704C248.115 185.143 248.797 185.614 249.333 186.215Z" fill="#212D6A"/>
<path d="M193.8 181.927C193.378 184.055 190.341 183.697 186.962 182.869C183.584 182.041 184.38 183.031 179.556 182.495C174.732 181.959 173.287 180.173 173.124 179.442C172.994 178.808 175.366 178.581 177.932 178.289C178.257 178.256 178.582 178.207 178.89 178.175C181.765 177.818 183.876 175.95 186.508 174.423C188.993 172.978 192.696 167.082 192.696 167.082L199.306 167.601C199.306 167.601 195.847 172.864 194.499 175.154C193.703 176.502 193.752 178.289 193.849 179.653C193.898 180.4 193.946 181.18 193.8 181.927Z" fill="#D8DBDA"/>
<path d="M186.962 182.869C183.584 182.04 184.38 183.031 179.556 182.495C174.732 181.959 173.287 180.173 173.124 179.442C172.994 178.808 175.366 178.581 177.932 178.289L177.948 178.337C177.948 178.337 180.839 180.384 184.851 180.481C188.116 180.562 191.575 179.62 193.833 179.653C193.882 180.4 193.93 181.163 193.784 181.911C193.378 184.038 190.341 183.697 186.962 182.869Z" fill="#212D6A"/>
<path d="M219.121 139.665L225.293 156.281L233.349 177.98C233.349 177.98 235.542 178.191 237.637 177.59C239.57 177.038 241.779 175.576 241.779 175.576C241.779 175.576 239.537 152.269 235.363 138.902C234.291 135.475 233.089 132.697 231.774 131.122C225.309 123.488 219.121 139.665 219.121 139.665Z" fill="#212D6A"/>
<path d="M225.406 113.272C229.451 111.973 240.999 113.645 252.579 115.919L254.999 111.924L280.045 109.975C280.045 109.975 288.312 128.296 283.78 139.974C283.114 141.695 281.799 142.784 279.541 142.832C279.541 142.832 279.184 142.832 279.168 142.832C279.168 142.832 264.257 142.816 259.417 142.816C246.96 142.816 233.056 134.257 231.27 133.899C228.33 133.315 227.144 139.194 224.205 145.382C221.265 151.571 196.528 172.75 196.528 172.75C196.528 172.75 192.728 172.783 191.152 172.198C189.463 171.564 188.846 170.736 188.846 170.736C188.846 170.736 216.278 116.228 225.406 113.272Z" fill="#FEA419"/>
<path d="M255.162 77.4257C264.079 82.3308 282.173 92.5146 282.27 92.4496C282.27 92.4496 288.913 94.9509 292.697 92.4496C298.983 88.2754 302.361 77.0359 290.862 67.3719C285.129 62.5481 281.052 61.3786 280.435 53.6799C280.094 49.5057 274.393 35.7163 264.891 36.9831C264.095 37.0968 259.223 37.3242 256.007 38.9971C247.821 43.285 241.795 75.5254 255.162 77.4257Z" fill="#212D6A"/>
<path d="M262.633 73.2516C262.601 73.2841 267.018 74.7946 269.974 73.479C272.752 72.2446 274.863 67.6643 274.831 67.6643C273.564 67.5994 272.167 66.4949 271.095 59.2347L270.559 59.4296L261.496 62.6943C261.496 62.6943 262.146 65.6016 262.584 68.379C262.925 70.6854 263.12 72.9268 262.633 73.2516Z" fill="#D8DBDA"/>
<path d="M261.496 62.678C261.496 62.678 262.146 65.5853 262.584 68.3627C267.798 67.4206 269.844 62.2394 270.575 59.4133L261.496 62.678Z" fill="#C8CCCC"/>
<path d="M260.148 65.5692C260.148 65.5692 272.557 63.8962 271.404 56.1975C270.251 48.4826 271.063 43.074 263.104 43.8211C255.129 44.552 254.041 47.7354 253.797 50.3991C253.538 53.0628 256.883 65.8128 260.148 65.5692Z" fill="#D8DBDA"/>
<path d="M254.236 46.1598C254.236 46.1598 262.179 52.9977 267.587 53.55C272.996 54.1022 275.042 52.3643 275.042 52.3643C275.042 52.3643 271.859 49.7168 269.942 45.4452C269.374 44.1945 268.188 43.3175 266.808 43.2038C262.942 42.8952 255.633 42.749 254.236 46.1598Z" fill="#212D6A"/>
<path d="M259.208 45.559C259.208 45.559 256.544 48.1252 255.716 50.0418C254.904 51.8771 254.66 56.2787 255.31 58.0329C255.31 58.0329 251.168 49.9768 253.507 46.0787C255.992 41.9045 259.208 45.559 259.208 45.559Z" fill="#212D6A"/>
<path d="M252.19 91.5239C252.564 116.634 252.288 111.388 255.033 113.775C255.698 114.344 257.55 114.685 260.003 114.847C267.701 115.351 281.247 114.084 281.751 112.671C283.521 107.75 282.27 106.223 283.748 98.6703C283.911 97.8745 284.089 96.9974 284.317 96.0554C285.551 90.8742 286.753 89.12 282.368 80.7879C278.389 73.2516 274.263 67.1284 273.89 67.3557C263.397 73.5764 262.553 68.3465 262.553 68.3465C262.553 68.3465 251.995 79.2774 252.19 91.5239Z" fill="white"/>
<path d="M225.293 156.297L233.349 177.996C233.349 177.996 235.542 178.207 237.637 177.606C239.57 177.054 241.779 175.592 241.779 175.592C241.779 175.592 239.537 152.285 235.363 138.918L225.293 156.297Z" fill="#212D6A"/>
<path d="M262.569 68.3627C262.569 68.3627 251.768 70.198 250.501 74.8432C249.234 79.4884 241.779 106.808 241.779 106.808C241.779 106.808 247.269 107.798 249.803 105.265C252.337 102.731 258.622 81.7461 258.622 81.7461L262.569 68.3627Z" fill="white"/>
<path d="M260.002 114.864C267.701 115.367 281.246 114.1 281.75 112.687C283.52 107.766 282.27 106.239 283.748 98.6865L280.028 88.2267C280.028 88.2267 280.646 99.8722 277.202 102.942C273.775 106.012 263.137 108.854 261.464 111.42C260.684 112.638 260.164 113.873 260.002 114.864Z" fill="#EDF5F6"/>
<path d="M268.822 109.958C268.822 109.958 261.221 108.269 260.003 108.935C258.784 109.617 255.78 112.07 255.406 112.915C255.032 113.775 258.135 112.265 259.142 111.989C259.791 111.81 261.513 112.411 262.374 112.703C265.963 113.905 268.156 113.288 268.156 113.288L268.822 109.958Z" fill="#D8DBDA"/>
<path d="M273.922 67.3719C273.922 67.3719 284.122 68.0054 287.662 72.9267C292.632 79.8621 302.491 109.406 296.839 113.353C290.472 117.787 267.863 114.506 267.863 114.506C267.863 114.506 267.116 110.998 268.156 109.293C269.195 107.587 286.217 104.842 286.996 104.063C287.776 103.283 277.186 88.7627 277.186 86.4076C277.186 84.0525 273.922 67.3719 273.922 67.3719Z" fill="white"/>
<path d="M259.646 111.063C259.646 111.063 258.054 113.109 257.535 113.369C257.015 113.613 256.674 113.548 256.674 113.548L257.746 111.615L259.646 111.063Z" fill="#D8DBDA"/>
<path d="M260.002 108.935L255.373 111.177C255.373 111.177 255.568 111.502 256.136 111.469C256.705 111.437 258.15 110.917 258.15 110.917L260.002 108.935Z" fill="#D8DBDA"/>
<path d="M257.518 116.504H220.909L209.896 89.1038H246.457L257.518 116.504Z" fill="#C8CCCC"/>
<path d="M220.486 115.432H268.823V116.504H220.909L220.486 115.432Z" fill="#BABFBE"/>
<path d="M230.151 102.812C229.875 101.854 230.427 101.074 231.402 101.074C232.36 101.074 233.367 101.854 233.643 102.812C233.919 103.77 233.367 104.55 232.393 104.55C231.434 104.55 230.427 103.77 230.151 102.812Z" fill="white"/>
<path d="M140.447 20.942C140.651 20.0777 140.115 19.2117 139.251 19.0076C138.387 18.8035 137.521 19.3387 137.317 20.203C137.113 21.0672 137.648 21.9333 138.512 22.1373C139.376 22.3414 140.242 21.8062 140.447 20.942Z" fill="#C8CCCC"/>
</svg>
