<svg width="321" height="234" viewBox="0 0 321 234" fill="none" xmlns="http://www.w3.org/2000/svg">
<path d="M320.501 147.597H147.188V151.349H320.501V147.597Z" fill="#80A1A5"/>
<path d="M221.067 37.0964C221.067 37.0964 229.893 11.2439 213.045 3.22743C196.22 -4.78903 181.932 6.80925 179.226 13.0713C176.519 19.3334 177.251 30.7368 179.543 38.7045C181.835 46.6479 181.518 58.7578 176.495 62.8026C171.496 66.8474 165.279 73.5724 165.596 87.2662C165.791 95.7456 199.024 65.556 199.024 65.556L221.067 37.0964Z" fill="#03454E"/>
<path d="M197.414 67.8464C197.414 67.8464 183.565 70.9165 178.079 74.1085C172.593 77.3248 160.377 92.0663 160.377 98.4259C160.377 104.761 213.727 110.706 213.727 110.706L223.845 147.597C223.845 147.597 250.813 141.018 254.007 135.56C257.225 130.102 243.766 91.0186 241.474 83.124C239.133 75.0588 229.453 69.4302 218.237 67.8464C206.997 66.287 197.414 67.8464 197.414 67.8464Z" fill="#FEA419"/>
<path d="M217.261 67.7246C217.261 67.7246 216.944 84.5372 203.607 85.0245C190.27 85.5119 193.049 68.8942 193.049 68.8942C193.049 68.8942 202.802 64.9712 217.261 67.7246Z" fill="#DCDFDE"/>
<path d="M222.92 17.0187C222.92 17.0187 227.65 44.0407 214.191 63.5824C200.268 83.8062 222.92 17.0187 222.92 17.0187Z" fill="#03454E"/>
<path d="M214.409 55.8339C214.409 55.8339 213.483 63.8747 215.019 68.8698C216.579 73.8648 194.61 74.011 194.635 69.8932C194.659 65.2149 196.878 61.3163 194.781 53.3242C192.684 45.3321 214.409 55.8339 214.409 55.8339Z" fill="#DCDFDE"/>
<path d="M197.391 56.8816C197.391 56.8816 204.315 64.094 213.191 57.6369C213.191 57.6369 212.459 62.2421 206.095 62.8513C199.683 63.4361 197.391 56.8816 197.391 56.8816Z" fill="#C1C5C5"/>
<path d="M206.045 7.63779C206.045 7.63779 223.552 12.8278 221.065 37.0964C218.554 61.3895 207.118 60.1224 206.045 60.3174C204.972 60.4879 191.391 61.3895 187.1 31.9308C182.833 2.4478 206.045 7.63779 206.045 7.63779Z" fill="#DCDFDE"/>
<path d="M201.535 18.4563C201.535 18.4563 211.044 33.5877 221.066 37.0964C221.066 37.0964 226.527 11.7069 203.949 6.39507C181.37 1.08325 184.906 32.0282 186.588 40.2884C186.588 40.2884 191.294 28.154 201.535 18.4563Z" fill="#03454E"/>
<path d="M188.783 16.1903C188.783 16.1903 193.782 6.49255 202.243 6.05396C210.703 5.61537 215.726 12.9496 215.726 12.9496C215.726 12.9496 212.435 4.68945 202.243 4.68945C192.075 4.71382 188.783 16.1903 188.783 16.1903Z" fill="#A8BFC2"/>
<path d="M223.212 92.4319L229.137 147.597H150.99L145.041 92.4319H223.212Z" fill="#1C5860"/>
<path d="M235.355 142.626H222.311V147.597H235.355V142.626Z" fill="#1C5860"/>
<path d="M191.93 119.113C192.637 122.548 191.027 125.765 188.345 126.325C185.663 126.861 182.932 124.522 182.225 121.111C181.518 117.7 183.127 114.459 185.809 113.898C188.492 113.338 191.247 115.677 191.93 119.113Z" fill="#527F85"/>
<path d="M275.635 175.74C275.635 175.74 274.538 176.69 273.563 178.176C272.587 179.663 269.978 179.736 269.856 181.734C269.735 183.756 273.416 183.805 275.318 183.147C277.244 182.489 277.537 180.515 278.683 180.028C279.853 179.541 280.439 179.126 280.365 178.176C280.268 177.226 279.634 175.667 279.634 175.667C279.634 175.667 278.902 175.886 278.488 175.935C278.049 176.008 276.635 176.032 275.635 175.74Z" fill="#00434C"/>
<path d="M288.803 121.233C288.803 121.233 288.071 125.618 287.462 128.494C287.218 129.663 286.999 130.589 286.877 130.882C286.706 131.247 285.316 132.733 283.634 134.463C280.659 137.509 276.733 141.359 276.733 141.359L275.197 138.459C275.197 138.459 278.684 134.366 281.049 131.661C282.146 130.394 283 129.42 283.146 129.298C283.634 128.859 284.219 124.498 285.024 120.916C285.828 117.334 287.437 115.36 287.437 115.36L288.803 121.233Z" fill="#FEA419"/>
<path d="M283.634 134.488C280.659 137.534 276.733 141.383 276.733 141.383L275.197 138.484C275.197 138.484 278.684 134.39 281.049 131.686C281.781 132.027 283.097 132.855 283.634 134.488Z" fill="#DCDFDE"/>
<path d="M302.676 174.546C302.676 174.546 303.675 175.667 304.285 176.325C304.87 177.007 307.162 178.201 307.186 180.223C307.211 182.392 305.504 182.197 303.992 182.124C302.48 182.051 301.261 181.003 300.627 179.76C299.993 178.517 298.287 178.201 298.189 177.202C298.067 176.203 298.969 174.424 298.969 174.424L302.676 174.546Z" fill="#00434C"/>
<path d="M299.14 172.596L298.945 174.448C298.945 174.448 302.091 175.813 302.676 174.546L302.53 172.889L299.14 172.596Z" fill="#3DA5D3"/>
<path d="M275.805 174.4L275.635 175.74C275.635 175.74 277.537 176.422 279.634 175.691L279.682 174.497L275.805 174.4Z" fill="#3DA5D3"/>
<path d="M302.847 140.799C302.969 141.188 282.658 140.799 282.658 140.799C282.658 140.799 288.266 136.705 288.632 135.633C288.998 134.536 287.193 128.006 286.974 125.862C286.779 124.157 286.316 116.53 287.437 115.36C288.608 114.142 292.85 112.875 292.85 112.875L299.019 113.094C299.019 113.094 300.043 113.314 300.775 113.655C301.506 113.996 305.676 115.482 306.334 117.553C307.017 119.624 302.189 126.325 302.189 126.325C302.189 126.325 302.189 126.617 302.164 127.129C302.14 127.787 302.116 128.786 302.091 129.858C302.067 131.271 302.043 132.806 302.043 133.927C302.043 136.535 302.75 140.409 302.847 140.799Z" fill="#FEA419"/>
<path d="M302.846 140.799C302.846 140.799 305.602 144.843 305.65 147.621C305.699 150.399 304.626 158.05 304.553 159.585C304.48 161.096 303.041 173.766 303.041 173.766C303.041 173.766 301.944 174.789 298.628 173.498C298.628 173.498 297.897 161.486 297.824 160.194C297.75 158.903 297.75 152.982 296.995 152.129C296.263 151.276 291.777 148.571 291.191 148.084C290.606 147.572 280.414 150.009 279.341 150.277C276.586 150.984 277.83 155.808 278.439 157.952C279.463 161.559 280.365 174.57 280.365 174.57C280.365 174.57 278.39 175.399 275.099 174.692C275.099 174.692 268.613 151.179 268.418 148.839C268.198 146.5 268.101 142.65 284.072 139.727L302.846 140.799Z" fill="#125059"/>
<path d="M294.556 99.4494C294.556 99.4494 289.192 98.2311 290.435 104.98C291.654 111.706 292.947 112.242 296.189 110.853C299.432 109.464 299.14 105.151 299.286 103.031C299.432 100.911 296.263 99.5225 294.556 99.4494Z" fill="#DCDFDE"/>
<path d="M293.143 114.581C293.143 114.581 295.508 117.09 299.263 114.8C299.263 114.8 298.434 109.342 298.873 106.71C299.311 104.055 293.972 110.828 293.972 110.828C294.045 110.877 294.094 111.121 294.094 111.486C294.094 111.803 294.094 112.168 294.045 112.558C293.923 113.436 293.655 114.361 293.143 114.581Z" fill="#DCDFDE"/>
<path d="M297.435 104.103C297.508 103.518 298.678 103.299 298.776 104.176C298.873 105.078 298.239 106.637 297.8 106.467C297.337 106.32 297.337 104.907 297.435 104.103Z" fill="#DCDFDE"/>
<path d="M298.995 106.491C298.995 106.491 298.848 104.371 298.093 104.298C297.312 104.225 297.19 105.078 297.19 105.078L296.41 105.224C296.41 105.224 296.654 103.372 295.874 103.031C295.093 102.714 290.851 104.055 290.241 103.518C289.632 102.982 289.9 99.2057 291.046 98.694C292.168 98.1823 295.264 97.0127 297.556 98.5478C297.556 98.5478 299.336 98.3528 299.604 99.7661C299.848 101.228 299.482 105.419 298.995 106.491Z" fill="#1A565E"/>
<path d="M294.045 112.558C297.922 111.364 298.214 109.05 298.214 109.001C296.946 111.194 294.118 111.486 294.118 111.486C294.094 111.779 294.094 112.168 294.045 112.558Z" fill="#C1C5C5"/>
<path d="M300.848 113.655C300.848 113.655 298.019 119.283 293.435 118.918C288.851 118.552 292.655 112.899 292.875 112.826C293.094 112.802 297.556 111.681 300.848 113.655Z" fill="#DCDFDE"/>
<path d="M280.342 140.506C280.342 140.506 294.362 142.236 302.847 140.799L286.608 138.776C286.633 138.776 286.535 139.19 280.342 140.506Z" fill="#036B70"/>
<path d="M290.826 138.118L289.777 138.654C289.777 138.654 290.021 140.311 290.582 140.823L291.752 140.531C291.777 140.506 291.533 138.703 290.826 138.118Z" fill="#DCDFDE"/>
<path d="M307.041 134.731C306.821 134.975 304.066 136.072 300.969 137.29C296.727 138.922 291.923 140.482 291.923 140.482L290.826 138.143C290.826 138.143 295.849 135.414 299.238 133.489C300.848 132.587 302.091 131.856 302.262 131.686C302.798 131.174 302.944 130.321 302.554 128.884C302.164 127.422 301.238 120.745 301.116 119.966C301.018 119.186 301.384 117.115 303.335 116.993C305.285 116.895 306.285 117.432 306.285 117.432C306.285 117.432 306.773 117.626 307.138 122.353C307.504 127.129 307.553 134.171 307.041 134.731Z" fill="#FEA419"/>
<path d="M302.163 127.081C302.139 127.738 302.114 128.737 302.09 129.81C300.188 125.156 301.285 121.428 301.31 121.354C301.09 122.646 302.139 127.032 302.163 127.081Z" fill="#036B70"/>
<path d="M287.461 128.494C287.217 129.663 286.997 130.589 286.875 130.882C286.217 127.738 286.802 123.718 286.802 123.718C286.9 125.643 287.461 128.494 287.461 128.494Z" fill="#036B70"/>
<path d="M300.969 137.29C296.727 138.922 291.753 140.531 291.753 140.531L290.826 138.143C290.826 138.143 295.849 135.414 299.238 133.489C299.238 133.489 300.482 134.098 300.969 137.29Z" fill="#DCDFDE"/>
<path d="M290.533 140.652L270.588 140.36L280.658 145.477L290.533 140.652Z" fill="#ACB2B1"/>
<path d="M280.659 145.477L290.534 141.651V140.652L279.879 144.502L280.659 145.477Z" fill="#1F4443"/>
<path d="M290.021 138.703C290.021 138.703 288.778 138.508 287.924 138.313C287.266 138.167 285.608 138.362 285.193 138.801C284.779 139.239 283.438 142.212 283.17 142.382C282.926 142.553 283.292 142.992 283.755 142.772C283.755 142.772 284.169 144.064 285.169 143.576C286.169 143.089 286.851 142.017 287.388 141.846C287.924 141.651 290.997 140.726 290.997 140.726C290.997 140.726 290.801 138.386 290.021 138.703Z" fill="#DCDFDE"/>
<path d="M285.462 138.581C285.462 138.581 284.657 138.971 284.462 139.142C284.242 139.312 283.413 139.946 283.194 140.092C282.999 140.238 283.511 140.652 285.023 140.019C286.534 139.361 285.462 138.581 285.462 138.581Z" fill="#DCDFDE"/>
<path d="M280.658 145.477L274.733 129.298L255.617 129.615L261.274 144.502L280.658 145.477Z" fill="#00434C"/>
<path d="M268.614 136.462C269.199 137.631 269.029 138.898 268.224 139.288C267.419 139.678 266.298 139.069 265.712 137.899C265.127 136.73 265.298 135.463 266.103 135.073C266.907 134.658 268.029 135.292 268.614 136.462Z" fill="#B9BEBD"/>
<path d="M68.748 233.171H145.432C145.286 232.269 145.164 230.88 145.042 229.54C144.31 221.548 143.847 216.261 143.847 216.261C143.847 216.261 80.9638 185.096 74.0635 205.588C71.8447 212.167 70.2842 220.378 69.2113 229.54C69.0406 230.929 68.87 232.318 68.748 233.171Z" fill="#59858B"/>
<path d="M133.631 127.275C133.631 127.275 137.142 148.133 139.97 161.9C141.116 167.48 142.14 171.914 142.799 173.303C143.603 175.057 150.187 182.124 158.257 190.408C172.4 204.955 191.077 223.278 191.077 223.278L198.367 209.414C198.367 209.414 181.787 189.97 170.522 177.007C165.304 171.013 161.257 166.383 160.501 165.725C158.16 163.63 155.429 142.919 151.577 125.838C147.748 108.782 140.044 99.3275 140.044 99.3275L133.631 127.275Z" fill="#9CCFD6"/>
<path d="M158.232 190.384C172.374 204.93 191.052 223.254 191.052 223.254L198.342 209.389C198.342 209.389 181.762 189.945 170.497 176.982C167.083 178.688 160.744 182.708 158.232 190.384Z" fill="#DCDFDE"/>
<path d="M70.0158 220.549C69.5038 222.401 141.019 223.156 141.019 223.156C141.019 223.156 137.971 200.861 136.24 195.671C134.508 190.481 141.165 159.414 142.286 149.278C143.189 141.164 145.407 104.859 140.068 99.3032C134.484 93.5041 114.319 87.4369 114.319 87.4369L84.9381 88.5334C84.9381 88.5334 80.0859 89.5567 76.6236 91.1649C73.1612 92.7731 53.338 99.8393 50.1195 109.732C46.9009 119.625 69.8939 151.447 69.8939 151.447C69.8939 151.447 69.9427 152.884 70.0158 155.223C70.1134 158.342 70.2353 163.094 70.3572 168.235C70.5035 174.911 70.6498 182.246 70.6498 187.606C70.6498 200.228 70.5523 218.697 70.0158 220.549Z" fill="#9CCFD6"/>
<path d="M106.272 23.6707C106.272 23.6707 131.776 17.9203 125.949 49.9862C120.121 82.052 114.001 84.5861 98.6155 77.9341C83.23 71.3065 84.6198 50.7415 83.8395 40.6783C83.0349 30.6151 98.1278 24.0362 106.272 23.6707Z" fill="#DCDFDE"/>
<path d="M113.003 95.6726C113.003 95.6726 101.713 107.636 83.8652 96.7691C83.8652 96.7691 87.864 70.8435 85.7671 58.2219C83.6702 45.6002 109.053 77.7879 109.053 77.7879C108.711 77.9584 108.492 79.1768 108.443 80.8824C108.394 82.3443 108.467 84.1474 108.711 86.0236C109.223 90.2146 110.54 94.6492 113.003 95.6726Z" fill="#DCDFDE"/>
<path d="M92.5939 45.7464C92.2526 42.9199 86.6689 41.8722 86.2056 46.1119C85.7667 50.3516 88.7415 57.8076 90.8628 57.0766C92.9841 56.3457 93.0572 49.645 92.5939 45.7464Z" fill="#DCDFDE"/>
<path d="M85.0589 57.1497C85.0589 57.1497 85.7173 47.0378 89.3991 46.721C93.0809 46.4043 93.666 50.4734 93.666 50.4734L97.3966 51.18C97.3966 51.18 96.2262 42.3351 99.9081 40.7757C103.59 39.2406 123.803 45.6489 126.754 43.0417C129.704 40.4346 128.314 22.4767 122.974 20.0158C117.61 17.5548 102.834 12.048 92.008 19.3822C92.008 19.3822 83.5716 18.432 82.3037 25.2301C81.0358 32.0283 82.7669 52.0816 85.0589 57.1497Z" fill="#1A565E"/>
<path d="M108.71 86.0237C90.3009 80.3464 88.9111 69.2598 88.8867 69.0892C94.958 79.4936 108.442 80.8824 108.442 80.8824C108.393 82.3444 108.466 84.1475 108.71 86.0237Z" fill="#C1C5C5"/>
<path d="M76.3301 91.3111C76.3301 91.3111 89.8138 118.138 111.588 116.408C133.361 114.678 115.294 87.7049 114.318 87.4612C113.246 87.1688 91.9838 81.8814 76.3301 91.3111Z" fill="#DCDFDE"/>
<path d="M46.7539 191.602C47.7536 192.747 60.8715 198.035 75.6963 203.736C95.934 211.534 118.781 218.917 118.781 218.917L123.974 207.781C123.974 207.781 100.055 194.794 83.8889 185.681C76.2571 181.368 70.3564 177.933 69.5274 177.153C66.9184 174.668 66.2601 170.72 68.162 163.8C70.0638 156.88 74.4771 125.083 74.9648 121.379C75.4524 117.675 73.7212 107.783 64.4558 107.271C55.1659 106.784 50.46 109.391 50.46 109.391C50.46 109.391 48.1193 110.365 46.3881 132.88C44.6326 155.345 44.3887 188.873 46.7539 191.602Z" fill="#9CCFD6"/>
<path d="M70.0156 155.199C70.1132 158.318 70.2351 163.069 70.357 168.235C79.4274 146.037 74.1851 128.323 74.0875 128.031C75.0872 134.049 70.0888 154.907 70.0156 155.199Z" fill="#FEA419"/>
<path d="M139.969 161.9C141.115 167.48 142.139 171.914 142.797 173.303C145.894 158.342 143.114 139.166 143.114 139.166C142.675 148.328 139.969 161.9 139.969 161.9Z" fill="#FEA419"/>
<path d="M75.6973 203.712C95.9594 211.509 124.512 218.015 124.512 218.015L128.559 208.293C128.559 208.293 100.08 194.745 83.9143 185.632C83.8899 185.657 78.0136 188.508 75.6973 203.712Z" fill="#DCDFDE"/>
<path d="M128.533 208.317C128.533 208.317 134.458 207.391 138.555 206.441C141.724 205.71 149.6 206.709 151.624 208.756C153.623 210.778 160.011 224.959 161.231 225.812C162.45 226.665 160.621 228.687 158.5 227.664C158.5 227.664 156.89 230.466 152.087 228.151C147.284 225.837 143.675 224.18 141.164 223.278C138.652 222.377 123.998 217.893 123.998 217.893C123.998 217.893 124.754 206.807 128.533 208.317Z" fill="#DCDFDE"/>
<path d="M149.504 209.95C149.504 209.95 153.307 211.777 154.307 212.606C155.307 213.434 159.33 216.431 160.305 217.138C161.281 217.844 158.842 219.867 151.625 216.748C144.432 213.653 149.504 209.95 149.504 209.95Z" fill="#DCDFDE"/>
<path d="M149.845 168.332L143.213 229.954H230.528L237.16 168.332H149.845Z" fill="#1C5860"/>
<path d="M136.255 229.959H150.836V224.404H136.255V229.959Z" fill="#1C5860"/>
<path d="M237.842 229.833H0.5V233.585H237.842V229.833Z" fill="#80A1A5"/>
<path d="M65.2363 173.547C65.2363 173.547 44.9011 190.165 53.0937 204.906C61.2619 219.648 66.5043 207.659 66.5043 207.659C66.5043 207.659 72.6 209.999 64.6512 191.992C60.8718 183.513 65.2363 173.547 65.2363 173.547Z" fill="#99C6CB"/>
<path d="M31.6127 151.349C31.6127 151.349 15.837 167.285 33.4414 192.309C51.0458 217.333 47.1202 229.565 47.1202 229.565C47.1202 229.565 77.1842 190.603 31.6127 151.349Z" fill="#549FA9"/>
<path d="M52.6306 222.401C61.5059 224.911 55.5809 198.546 42.658 189.531C29.7351 180.54 17.69 178.859 10.6921 170.574C10.6921 170.574 8.88779 210.096 52.6306 222.401Z" fill="#00707E"/>
<path d="M21.4696 206.709H9.20508V215.578V217.455L11.0826 215.578H21.4696V206.709Z" fill="white"/>
<path d="M185.346 198.157C184.639 201.592 186.248 204.809 188.931 205.369C191.613 205.905 194.344 203.566 195.051 200.155C195.758 196.719 194.148 193.503 191.466 192.942C188.784 192.382 186.029 194.721 185.346 198.157Z" fill="#527F85"/>
</svg>
