<svg width="249" height="257" viewBox="0 0 249 257" fill="none" xmlns="http://www.w3.org/2000/svg">
<path opacity="0.32" d="M12.9709 153.048H150.544C152.323 153.048 153.762 151.61 153.762 149.831V24.3918C153.762 22.6128 152.323 21.1744 150.544 21.1744H12.9519C11.1727 21.1744 9.73409 22.6128 9.73409 24.3918V149.812C9.75301 151.61 11.1916 153.048 12.9709 153.048Z" fill="url(#paint0_linear_1407_9931)"/>
<path d="M26.9023 67.2773L27.0348 66.5203L45.5848 69.5484L51.6041 82.38L71.6116 83.7426L78.0852 93.3001L93.3795 92.9026L93.3984 93.6786L77.6877 94.076L71.1763 84.4807L51.093 83.1181L45.0548 70.2486L26.9023 67.2773Z" fill="#8DADB0"/>
<path d="M51.3392 45.8156H27.8109C27.527 45.8156 27.2809 45.5885 27.2809 45.2857V41.7466C27.2809 41.4627 27.5081 41.2167 27.8109 41.2167H51.3392C51.6231 41.2167 51.8691 41.4438 51.8691 41.7466V45.2857C51.8691 45.5696 51.6231 45.8156 51.3392 45.8156Z" fill="#5D8B8E"/>
<path d="M51.3392 53.7834H27.8109C27.527 53.7834 27.2809 53.5563 27.2809 53.2535V49.7333C27.2809 49.4494 27.5081 49.2034 27.8109 49.2034H51.3392C51.6231 49.2034 51.8691 49.4305 51.8691 49.7333V53.2535C51.8691 53.5563 51.6231 53.7834 51.3392 53.7834Z" fill="white"/>
<path d="M51.3392 61.751H27.8109C27.527 61.751 27.2809 61.5239 27.2809 61.2211V57.7009C27.2809 57.4171 27.5081 57.171 27.8109 57.171H51.3392C51.6231 57.171 51.8691 57.3981 51.8691 57.7009V61.2211C51.8691 61.5239 51.6231 61.751 51.3392 61.751Z" fill="white"/>
<path d="M65.9713 52.2125H140.758C141.231 52.2125 141.629 51.815 141.629 51.3419V42.1062C141.629 41.633 141.231 41.2356 140.758 41.2356H65.9713C65.4981 41.2356 65.1006 41.633 65.1006 42.1062V51.3419C65.1195 51.815 65.4981 52.2125 65.9713 52.2125Z" fill="#5D8B8E"/>
<path d="M65.9713 67.9587H140.758C141.231 67.9587 141.629 67.5613 141.629 67.0881V57.8524C141.629 57.3793 141.231 56.9818 140.758 56.9818H65.9713C65.4981 56.9818 65.1006 57.3793 65.1006 57.8524V67.0881C65.1195 67.5613 65.4981 67.9587 65.9713 67.9587Z" fill="white"/>
<path d="M22.4919 113.342C27.5458 106.435 36.3476 103.88 44.0516 106.435C45.9255 107.059 47.7237 107.968 49.3894 109.198C54.4623 112.907 57.188 118.623 57.2637 124.452C57.3205 128.483 56.1091 132.59 53.5537 136.091C53.3076 136.432 53.0237 136.772 52.7587 137.113C51.5094 138.589 50.0898 139.838 48.5376 140.86C42.0262 145.1 33.3001 145.119 26.6562 140.255C18.0626 133.952 16.2076 121.916 22.4919 113.342ZM29.4955 136.356C34.4737 140.009 41.023 139.99 45.9066 136.81C47.0801 136.053 48.1401 135.107 49.0676 134.009C49.2759 133.763 49.4651 133.517 49.6733 133.252C51.6041 130.622 52.5127 127.556 52.4559 124.527C52.3991 120.156 50.3548 115.86 46.5501 113.077C45.3008 112.15 43.938 111.469 42.5373 111.015C36.7451 109.103 30.158 111.015 26.3723 116.2C21.659 122.616 23.0598 131.644 29.4955 136.356Z" fill="white"/>
<path d="M126.107 145.781H153.762V147.92H126.107V145.781Z" fill="#B8CCCE"/>
<path d="M133.054 150.323H153.762V152.462H133.054V150.323Z" fill="#B8CCCE"/>
<path d="M47.5166 124.698C47.4978 124.679 47.4978 124.679 47.5166 124.698C47.5543 124.717 47.5543 124.717 47.5166 124.698Z" fill="#205F64"/>
<path d="M97.6576 145.724H112.914V147.863H97.6576V145.724Z" fill="#B8CCCE"/>
<path d="M90.2755 150.247H112.914V152.386H90.2755V150.247Z" fill="#B8CCCE"/>
<path opacity="0.18" d="M47.4965 112.453H72.293V116.389H47.4965V112.453Z" fill="url(#paint1_linear_1407_9931)"/>
<path opacity="0.18" d="M42.2533 105.091H72.293V109.027H42.2533V105.091Z" fill="url(#paint2_linear_1407_9931)"/>
<path d="M50.4315 169.646H164.855L167.694 166.807H174.773V166.183H167.429L164.59 169.022H50.4315V169.646Z" fill="url(#paint3_linear_1407_9931)"/>
<path opacity="0.18" d="M159.688 10.7275H142.936V7.68042H159.688V10.7275Z" fill="url(#paint4_linear_1407_9931)"/>
<path opacity="0.18" d="M159.688 6.84768H142.936V6.26099H159.688V6.84768Z" fill="url(#paint5_linear_1407_9931)"/>
<path opacity="0.18" d="M243.333 115.084H236.651L238.695 110.844H245.377L243.333 115.084Z" fill="url(#paint6_linear_1407_9931)"/>
<path opacity="0.18" d="M246.456 115.084H244.866L246.91 110.844H248.5L246.456 115.084Z" fill="url(#paint7_linear_1407_9931)"/>
<path d="M160.596 232.044H140.361V170.574H160.596V232.044Z" fill="url(#paint8_linear_1407_9931)"/>
<path d="M235.609 200.173H65.3273C64.078 200.173 63.0748 199.17 63.0748 197.921V79.1438C63.0748 77.8947 64.078 76.8916 65.3273 76.8916H235.609C236.858 76.8916 237.861 77.8947 237.861 79.1438V197.921C237.861 199.17 236.858 200.173 235.609 200.173Z" fill="#ACB2B1"/>
<path d="M69.568 82.929H231.691V177.765H69.568V82.929Z" fill="url(#paint9_linear_1407_9931)"/>
<path d="M104.946 229.716H196.012V234.353H104.946V229.716Z" fill="#ACB2B1"/>
<path d="M224.669 167.64C224.65 167.659 224.65 167.659 224.669 167.64V167.64Z" fill="#205F64"/>
<path d="M152.949 0.0913031C152.949 0.0913031 180.319 -2.17978 179.562 26.5872C178.805 55.3732 174.243 59.6882 179.581 80.0333C184.9 100.378 152.911 68.4887 152.911 68.4887L152.949 0.0913031Z" fill="#00434C"/>
<path d="M129.93 77.8568C129.93 77.8568 91.1647 102.044 87.8901 99.4699C83.3093 95.8741 70.8543 65.1956 70.8543 65.1956L61.1061 69.8323C61.1061 69.8323 72.7472 122.881 88.4201 118.963C104.093 115.046 140.076 92.827 140.076 92.827L129.93 77.8568Z" fill="#D6D9D8"/>
<path d="M58.4764 67.4855C58.4764 67.4855 63.095 73.5039 65.9532 74.1285C68.8114 74.7719 71.7832 67.1638 71.7832 67.1638L70.2311 61.8646L58.4764 67.4855Z" fill="#D6D9D8"/>
<path d="M69.8891 65.4605C69.8891 65.4605 72.1037 58.5338 72.4066 57.455C72.7094 56.3952 71.6305 53.2535 69.6619 50.2632C67.7501 47.3676 65.3462 44.1692 64.5134 43.3175C64.078 42.8822 63.8319 42.3902 62.3934 43.0526C60.9548 43.696 60.0841 45.0398 60.0841 45.0398C60.0841 45.0398 57.9262 45.0019 56.9987 46.7431C56.9987 46.7431 54.9733 46.7998 54.2351 48.9574C54.2351 48.9574 52.2476 49.0709 51.8501 50.6796C51.8501 50.6796 52.8155 53.632 52.8344 54.8432C52.8723 56.0356 55.2762 62.0539 58.4751 67.4856C58.4751 67.4856 63.2262 71.5735 69.8891 65.4605Z" fill="#D6D9D8"/>
<path d="M64.8164 56.4709C64.8164 56.4709 62.4314 59.234 62.1475 60.3506C61.8636 61.4672 54.8978 57.3225 54.8978 57.3225C54.8978 57.3225 61.3714 53.6509 64.8164 56.4709Z" fill="#C4C8C8"/>
<path d="M64.8917 44.0367C64.8917 44.0367 68.7531 52.1937 67.4471 52.9128C66.1599 53.6131 65.2514 53.1021 65.2514 53.1021L65.0431 57.19C65.0431 57.19 63.3774 59.8207 60.9924 57.2468C60.9924 57.2468 59.6864 59.8775 57.6799 57.0954C57.6799 57.0954 56.0521 58.4391 54.8974 57.3225C53.7428 56.2059 51.831 50.6796 51.831 50.6796C51.831 50.6796 51.831 49.1277 54.0835 48.7492C54.0835 48.7492 54.6892 46.762 56.8849 46.6484C56.8849 46.6484 58.3046 44.4152 60.6517 44.3206C60.6517 44.3206 61.9199 42.5794 64.5131 43.3365C64.5131 43.3365 64.7403 43.6771 64.8917 44.0367Z" fill="#CDD1D0"/>
<path d="M72.3496 57.19C72.3496 57.19 67.6742 53.0831 64.1346 51.9665C63.3396 51.7205 62.5067 51.6069 61.9767 52.2693C61.4467 52.9128 61.6928 54.5215 63.6235 56.3951C65.5542 58.2877 67.201 61.5997 67.201 61.5997C67.201 61.5997 69.7564 62.9434 72.3496 57.19Z" fill="#D6D9D8"/>
<path d="M60.6722 44.3206C60.6722 44.3206 65.3665 52.9885 65.3097 53.9916C65.2529 54.9947 68.4329 53.2913 68.414 52.4397C68.395 51.588 64.9501 44.0367 64.5147 43.3364C64.0793 42.6362 61.524 41.9359 60.6722 44.3206Z" fill="#D6D9D8"/>
<path d="M65.4979 44.964C65.4979 44.964 57.8886 30.7697 56.7718 31.2996C55.144 32.0567 55.5793 35.9743 61.9961 46.5726C68.2236 56.8682 65.4979 44.964 65.4979 44.964Z" fill="#D6D9D8"/>
<path d="M127.868 107.267L112.214 86.5058C112.214 86.5058 140.191 64.8359 148.822 78.6138C148.822 78.6138 149.447 101.306 127.868 107.267Z" fill="#FEA419"/>
<path d="M118.461 106.529C118.896 113.494 122.455 119.266 123.061 121.783C123.647 124.3 123.061 130.073 123.799 135.864C124.537 141.636 126.771 169.192 126.014 177.046C125.995 177.292 126.014 177.538 126.108 177.765H183.405C181.285 173.829 174.83 161.414 174.622 155.717C174.546 153.37 173.146 146.084 176.988 140.747C179.032 137.927 182.799 128.975 186.566 122.427C188.024 119.891 189.557 117.355 190.617 115.462C191.317 114.232 191.847 112.888 192.226 111.847C192.585 110.806 192.794 110.087 192.794 110.087C192.794 110.087 194.175 92.8459 191.98 82.9289C191.279 79.7305 190.181 77.2891 188.554 76.4563C181.891 73.0497 178.332 72.463 171.802 72.1602C165.271 71.8574 160.994 70.5326 160.994 70.5326L145.718 72.1602C145.718 72.1602 135.932 75.5668 132.09 75.8696C129.724 76.0589 126.96 79.2573 125.294 82.9478C124.253 85.2568 123.629 87.7549 123.799 89.7989C124.234 95.117 118.026 99.5646 118.461 106.529Z" fill="#FEA419"/>
<path d="M177.858 82.9288C178.843 90.1963 183.423 99.2428 184.691 100.605C186.774 102.839 196.844 134.085 198.471 138.532C200.099 142.98 201.197 155.584 204.036 162.795C205.134 165.596 206.933 171.331 208.825 177.765H223.893C221.356 164.461 214.447 144.343 213.217 141.182C211.873 137.775 208.39 114.232 207.065 110.239C205.721 106.245 205.134 94.9845 199.664 84.3104C199.418 83.8373 199.153 83.3641 198.888 82.9288C193.115 73.6363 182.06 73.6742 182.06 73.6742C178.048 74.4501 177.234 78.3299 177.858 82.9288Z" fill="#D6D9D8"/>
<path d="M186.035 116.9L210.736 109.122C210.736 109.122 203.165 72.6901 182.06 73.6742C165.137 74.4691 186.035 116.9 186.035 116.9Z" fill="#FEA419"/>
<path d="M155.635 3.00582C148.859 1.88921 133.338 3.59252 128.927 21.4016C128.927 21.4016 128.908 26.3412 129.665 30.2966C130.404 34.2521 125.69 45.1533 126.523 45.8157C127.356 46.4781 130.972 47.6136 130.972 47.6136C130.972 47.6136 133.546 60.4074 137.88 60.7859C142.215 61.1833 159.005 59.6693 168.469 45.2101C177.933 30.7508 183.025 7.4912 155.635 3.00582Z" fill="#D6D9D8"/>
<path d="M144.374 55.8273C144.374 55.8273 144.714 57.6253 145.017 60.2559C145.169 61.5997 145.339 63.1705 145.434 64.817C145.699 69.397 145.566 74.7151 143.995 78.0839C143.995 78.0839 152.494 83.3453 161.599 70.684C161.599 70.684 160.709 54.8811 165.933 46.5348C171.177 38.1886 144.374 55.8273 144.374 55.8273Z" fill="#D6D9D8"/>
<path d="M128.928 21.4016C128.928 21.4016 139.131 30.2209 149.958 33.003C160.766 35.7851 166.501 47.9164 166.501 47.9164C166.501 47.9164 185.619 28.8393 174.073 10.33C162.526 -8.17926 128.947 0.0723334 128.928 21.4016Z" fill="#00434C"/>
<path d="M145.017 60.256C145.169 61.5997 145.339 63.1706 145.434 64.8171C154.974 60.1992 160.217 53.8402 160.217 53.8402C154.614 57.8714 145.017 60.256 145.017 60.256Z" fill="#B5BABA"/>
<path d="M151.945 33.6275C151.945 33.6275 163 63.3597 161.675 70.5136C161.675 70.5136 167.523 69.5106 177.953 72.6901C177.953 72.709 172.918 19.6604 151.945 33.6275Z" fill="#00434C"/>
<path d="M165.365 71.4789C165.365 71.4789 161.731 93.7733 148.235 91.2562C134.758 88.7391 144.979 72.3873 144.979 72.3873C144.979 72.3873 150.26 67.6748 165.365 71.4789Z" fill="#D6D9D8"/>
<path d="M0.516518 222.392C0.838303 224.625 14.2208 233.994 16.8519 235.848C18.9719 237.343 20.808 238.044 24.0069 239.236C31.2755 241.147 76.8366 254.736 76.8366 254.736C76.9501 254.282 77.0259 253.866 77.2909 253.355C78.9944 254.036 80.7359 254.471 81.8527 254.812C83.5562 255.342 97.0145 255.758 99.778 256.288C102.542 256.818 108.05 257.67 110.283 255.55C112.517 253.43 108.902 248.869 105.835 247.696C102.769 246.522 91.5252 246.22 89.4998 245.992C87.4934 245.784 84.8434 245.046 83.5562 245.463C83.1587 245.595 81.3794 245.065 79.1269 244.308C79.1837 243.475 79.2026 242.964 79.2026 242.964L67.2398 239.52L69.4544 218.342C69.4544 218.342 64.2491 198.735 43.4465 213.686C43.4465 213.686 38.8091 215.049 37.2191 215.484C37.1055 215.522 36.9351 215.522 36.689 215.503C33.509 215.257 19.8804 211.15 14.959 211.15C9.65901 211.15 7.95544 210.829 6.04366 211.794C4.13187 212.74 0.213661 220.159 0.516518 222.392Z" fill="#1B5B61"/>
<path d="M21.831 255.588C24.0646 257.707 29.5728 256.856 32.3364 256.326C35.1 255.796 48.5582 255.38 50.2618 254.85C51.9653 254.32 55.1454 253.582 57.36 252.087C57.5304 251.973 57.9468 251.784 58.5525 251.557L61.9218 253.979L108.732 239.085C111.534 238.309 113.767 237.154 115.244 235.848C117.685 233.729 131.257 224.606 131.579 222.392C131.901 220.159 127.983 212.74 126.071 211.794C124.159 210.848 122.474 211.15 117.155 211.15C111.855 211.15 96.4854 215.92 94.8954 215.503C94.1761 215.314 92.6807 214.557 91.2611 213.781C89.5575 212.854 87.9675 211.907 87.9675 211.907C65.1964 201.744 62.66 218.38 62.66 218.38L64.0039 238.914C64.0039 238.914 62.1111 239.861 59.6314 241.034L48.35 244.232L49.8264 245.292C49.1829 245.5 48.7286 245.595 48.5582 245.538C47.29 245.122 44.64 245.86 42.6146 246.068C40.6082 246.276 29.3646 246.598 26.2793 247.771C23.2128 248.907 19.5975 253.449 21.831 255.588Z" fill="#1B5B61"/>
<path d="M91.2602 213.762C89.6892 213.876 79.0702 220.026 76.5527 221.484C80.3763 219.478 94.8945 215.484 94.8945 215.484C94.1752 215.314 92.6799 214.538 91.2602 213.762Z" fill="#1B5B61"/>
<path d="M36.6908 215.522C36.6908 215.522 54.9758 219.951 58.3262 221.806C58.1747 221.692 48.6915 214.5 43.7133 213.535C43.7133 213.535 38.8297 215.087 37.2397 215.503C37.1072 215.522 36.9179 215.541 36.6908 215.522Z" fill="#1B5B61"/>
<path d="M21.8319 255.588C24.0655 257.707 29.5737 256.856 32.3372 256.326C35.1008 255.796 48.559 255.38 50.2626 254.85C50.7548 254.698 51.3605 254.528 52.0419 254.32C53.7076 253.828 55.7898 253.146 57.3798 252.087C57.5501 251.973 57.9666 251.784 58.5723 251.557L50.0923 245.444L49.8462 245.273C49.2026 245.481 48.7483 245.576 48.578 245.519C47.3098 245.103 44.6598 245.841 42.6344 246.049C40.628 246.257 29.3844 246.579 26.299 247.753C23.2137 248.907 19.5983 253.449 21.8319 255.588Z" fill="#D6D9D8"/>
<path d="M21.831 255.588C24.0646 257.707 29.5728 256.856 32.3364 256.326C35.0999 255.796 48.5582 255.38 50.2617 254.85C50.7539 254.698 51.3596 254.528 52.041 254.32C52.041 254.32 48.331 250.648 50.0914 245.444L49.8453 245.273C49.2017 245.481 48.7475 245.576 48.5771 245.519C47.3089 245.103 44.6589 245.841 42.6335 246.049C40.6271 246.257 29.3835 246.579 26.2981 247.753C23.2128 248.907 19.5974 253.449 21.831 255.588Z" fill="#C5D5D7"/>
<path d="M86.6047 218.456C86.5858 218.512 86.5858 218.55 86.6236 218.588C86.8314 218.739 86.7936 218.663 86.6047 218.456Z" fill="#0D8B9C"/>
<path d="M25.3146 193.663C25.485 193.303 35.1575 178.106 37.7696 171.179C40.3818 164.253 46.685 161.073 49.6379 160.089C50.6979 159.729 52.5907 159.124 54.5782 158.48C58.1557 157.326 62.0739 156.058 62.0739 156.058H74.4532C74.4532 156.058 78.7311 157.496 83.2929 159.086C87.495 160.562 91.9054 162.171 93.4007 162.909C96.505 164.461 101.748 175.57 102.808 176.838C103.868 178.106 112.026 193.228 113.2 199.038C114.109 203.542 87.3247 216.771 86.6054 218.456C85.7536 217.509 81.8543 213.781 81.8543 213.781C81.8543 213.781 83.1036 212.986 84.864 211.832C77.69 212.153 60.1622 211.548 57.6447 211.661C57.1336 211.68 56.5846 211.68 56.0168 211.623C55.2407 212.191 50.2246 216.62 50.2246 216.62C50.2246 216.62 37.8453 211.491 32.1668 205.738C24.0843 197.581 24.425 195.461 25.3146 193.663ZM95.6722 203.713C98.3222 200.533 101.975 198.603 101.048 197.202C100.12 195.783 92.3597 182.364 92.3597 182.364C92.3597 182.364 88.3279 191.203 87.1922 195.802C86.0565 200.401 86.1511 202.501 86.6243 203.921C87.0597 205.208 87.4004 206.078 87.779 209.882C90.959 207.706 94.4418 205.17 95.6722 203.713ZM40.9686 202.199C42.0096 203.372 46.1171 206.003 49.8271 208.141C50.1111 205.586 50.5275 201.536 50.5843 200.098C50.66 197.902 49.7325 191.619 48.5968 189.216C47.4611 186.812 46.685 180.245 46.685 180.245C46.685 180.245 37.3153 192.963 35.8389 194.307C34.3436 195.631 37.4478 198.205 40.9686 202.199Z" fill="#008597"/>
<path d="M66.8058 122.067C66.8058 122.067 57.1333 123.6 58.6098 138.722C60.0862 153.862 68.623 152.613 69.1908 152.594C69.7587 152.575 77.7655 152.878 78.3901 134.388C78.3901 134.388 78.6551 120.724 66.8058 122.067Z" fill="#D6D9D8"/>
<path d="M58.4587 134.445C58.4587 134.445 57.3987 133.309 57.0202 134.464C56.6227 135.618 58.4587 140.709 58.5345 140.955C58.5345 140.955 58.7237 141.39 58.9887 141.163C59.2159 140.898 58.4587 134.445 58.4587 134.445Z" fill="#D6D9D8"/>
<path d="M78.1241 134.255C78.1241 134.255 79.1652 133.101 79.5816 134.237C79.9981 135.372 78.2756 140.52 78.1999 140.766C78.1999 140.766 78.0106 141.22 77.7645 140.974C77.4806 140.728 78.1241 134.255 78.1241 134.255Z" fill="#D6D9D8"/>
<path d="M58.4579 136.772L59.8396 138.627C59.8396 138.627 59.8018 134.577 60.0289 133.934C60.2561 133.29 60.5968 131.36 60.7861 130.887C60.9754 130.432 69.0957 128.161 76.2696 131.549C76.2696 131.549 75.9479 134.464 76.6482 134.728C77.3296 134.993 77.0079 139.479 77.0079 139.479L78.1436 138.192C78.1436 138.192 79.885 126.553 79.4497 125.341C79.0143 124.13 77.6514 116.825 62.925 121.159C62.925 121.159 58.3443 120.194 57.4168 123.354C56.4704 126.515 58.4579 136.772 58.4579 136.772Z" fill="#00434C"/>
<path d="M81.0389 233.539C81.0389 233.539 95.841 224.663 102.315 223.263C108.429 221.938 110.662 219.667 110.662 219.667C110.662 219.667 100.933 219.667 94.4782 224.266C90.0867 227.389 81.0389 233.539 81.0389 233.539Z" fill="#02494F"/>
<path d="M67.8848 239.728C67.8848 239.728 42.123 226.196 31.5987 223.263C25.5794 221.578 23.2512 219.667 23.2512 219.667C23.2512 219.667 39.1701 221.219 48.8615 227.048C53.499 229.83 67.8848 239.728 67.8848 239.728Z" fill="#02494F"/>
<path d="M77.2909 253.374C78.9944 254.055 80.7359 254.49 81.8526 254.831C83.5562 255.361 97.0144 255.777 99.778 256.307C102.542 256.837 108.05 257.689 110.283 255.569C112.517 253.449 108.902 248.888 105.835 247.715C102.769 246.541 91.5252 246.239 89.4998 246.011C87.4934 245.803 84.8434 245.065 83.5562 245.482C83.1587 245.614 81.3794 245.084 79.1269 244.327C79.0702 245.69 77.2909 253.374 77.2909 253.374Z" fill="#D6D9D8"/>
<path d="M67.8848 252.087L42.5583 244.592L47.5744 243.059C47.5744 243.059 67.8091 250.402 67.8848 252.087Z" fill="#1B5B61"/>
<path d="M67.8848 252.087L56.0355 248.472L64.2505 253.241L67.8848 252.087Z" fill="#02494F"/>
<path d="M76.0227 221.805C76.0417 221.787 76.2309 221.673 76.5527 221.484C76.3445 221.597 76.1552 221.711 76.0227 221.805Z" fill="#14525A"/>
<path d="M81.8527 254.831C83.5562 255.361 97.0145 255.777 99.778 256.307C102.542 256.837 108.05 257.689 110.283 255.569C112.517 253.449 108.902 248.888 105.835 247.715C102.769 246.541 91.5252 246.239 89.4998 246.011C87.4934 245.803 84.8434 245.065 83.5562 245.482C83.5562 245.5 86.9634 250.705 81.8527 254.831Z" fill="#C5D5D7"/>
<path d="M90.2394 219.667L94.1387 197.467L43.694 196.294L46.9497 218.134C46.9497 218.134 63.0579 224.02 68.5283 227.464C68.4904 227.483 82.3083 221.805 90.2394 219.667Z" fill="#3C7377"/>
<path d="M60.8988 155.774C60.8988 155.755 62.1481 155.168 62.1481 155.168C62.7538 153.825 62.2995 148.128 62.2995 148.128C62.2995 148.128 74.622 144.986 74.2624 147.39C73.9027 149.793 75.3224 155.358 75.3224 155.358L81.6445 158.499C81.6445 158.499 74.906 176.573 67.1642 174.245C59.4224 171.917 56.5074 157.837 56.5074 157.837L60.8988 155.774Z" fill="#D6D9D8"/>
<path d="M74.1309 150.02C74.1309 150.02 72.1055 152.632 68.6605 152.632C66.3891 152.632 64.7801 152.008 62.5276 149.812C62.5276 149.812 63.493 153.976 68.6605 154.373C68.6416 154.354 72.4273 154.79 74.1309 150.02Z" fill="#B5BABA"/>
<path d="M148.728 33.3247C148.747 37.1288 151.226 40.1947 154.255 40.1758C157.283 40.1569 159.706 37.0531 159.687 33.249C159.668 29.4449 157.189 26.379 154.16 26.3979C151.132 26.4168 148.709 29.5206 148.728 33.3247Z" fill="#ACB2B1"/>
<path d="M139.188 51.1527C151.662 45.986 155.732 34.0818 155.902 33.5708L154.558 33.1166C154.521 33.2301 150.508 44.9073 138.658 49.8279L139.188 51.1527Z" fill="#ACB2B1"/>
<path d="M136.48 51.6826C136.745 52.8371 137.9 53.5563 139.035 53.2913C140.19 53.0264 140.909 51.8719 140.644 50.7364C140.379 49.5819 139.225 48.8627 138.089 49.1277C136.934 49.3926 136.215 50.5471 136.48 51.6826Z" fill="#ACB2B1"/>
<defs>
<linearGradient id="paint0_linear_1407_9931" x1="81.7574" y1="112.489" x2="81.7574" y2="334.455" gradientUnits="userSpaceOnUse">
<stop stop-color="#83A6A9"/>
<stop offset="1" stop-color="#799FA2"/>
</linearGradient>
<linearGradient id="paint1_linear_1407_9931" x1="72.2983" y1="114.414" x2="47.495" y2="114.414" gradientUnits="userSpaceOnUse">
<stop stop-color="#DEE7E8"/>
<stop offset="1" stop-color="#FAFBFB"/>
</linearGradient>
<linearGradient id="paint2_linear_1407_9931" x1="72.2983" y1="107.062" x2="42.2584" y2="107.062" gradientUnits="userSpaceOnUse">
<stop stop-color="#DEE7E8"/>
<stop offset="1" stop-color="#FAFBFB"/>
</linearGradient>
<linearGradient id="paint3_linear_1407_9931" x1="174.78" y1="167.912" x2="50.4379" y2="167.912" gradientUnits="userSpaceOnUse">
<stop stop-color="#DEE7E8"/>
<stop offset="0.8171" stop-color="#F5F8F8"/>
<stop offset="1" stop-color="#FAFBFB"/>
</linearGradient>
<linearGradient id="paint4_linear_1407_9931" x1="159.684" y1="9.20127" x2="142.934" y2="9.20127" gradientUnits="userSpaceOnUse">
<stop stop-color="#DEE7E8"/>
<stop offset="1" stop-color="#FAFBFB"/>
</linearGradient>
<linearGradient id="paint5_linear_1407_9931" x1="159.684" y1="6.55397" x2="142.934" y2="6.55397" gradientUnits="userSpaceOnUse">
<stop stop-color="#DEE7E8"/>
<stop offset="1" stop-color="#FAFBFB"/>
</linearGradient>
<linearGradient id="paint6_linear_1407_9931" x1="245.376" y1="112.96" x2="236.655" y2="112.96" gradientUnits="userSpaceOnUse">
<stop stop-color="#DEE7E8"/>
<stop offset="1" stop-color="#FAFBFB"/>
</linearGradient>
<linearGradient id="paint7_linear_1407_9931" x1="248.5" y1="112.96" x2="244.865" y2="112.96" gradientUnits="userSpaceOnUse">
<stop stop-color="#DEE7E8"/>
<stop offset="1" stop-color="#FAFBFB"/>
</linearGradient>
<linearGradient id="paint8_linear_1407_9931" x1="150.476" y1="261.096" x2="150.476" y2="233.274" gradientUnits="userSpaceOnUse">
<stop stop-color="#F5F6F6"/>
<stop offset="1" stop-color="#A1B9BD"/>
</linearGradient>
<linearGradient id="paint9_linear_1407_9931" x1="231.689" y1="130.348" x2="69.5686" y2="130.348" gradientUnits="userSpaceOnUse">
<stop stop-color="#326C70"/>
<stop offset="0.5193" stop-color="#2E696D"/>
<stop offset="1" stop-color="#236166"/>
</linearGradient>
</defs>
</svg>
